<svg xmlns="http://www.w3.org/2000/svg" width="79" height="24"><path fill="#CC3131" d="M.68 1.902C1.703 2 1.996 2.66 2.46 3.66c1.585 3.39 3.097 6.78 4.658 10.17a172.13 172.13 0 0 1 1.683 3.927.979.979 0 0 0 .366.073.52.52 0 0 0 .293-.073c.707-2.024 2.17-5.146 3.049-6.927.756 1.708 2.17 4.756 2.95 6.927.098.049.22.073.342.073a.52.52 0 0 0 .293-.073c1-2.61 1.976-5 3.049-7.488l1.78-4.122c1.464-3.39 1.683-4.122 2.903-4.244l.463-.048c.17-.195.147-.513-.049-.586-.634.05-1.341.073-2.268.073-.756 0-1.415-.024-2.341-.073-.195.098-.22.366-.025.586l.708.048c.512.025.804.22.804.561 0 .293-.414 1.342-.731 2.22-.171.439-1.464 3.683-1.951 4.854a191.682 191.682 0 0 1-2.196 5.146c-.804-1.854-1.658-3.683-2.487-5.561-.122-.293-.171-.488-.171-.585 0-.098.097-.342.22-.586.365-.853 1.39-2.975 1.902-3.878.536-1 .975-2.097 2-2.17l.707-.05c.146-.194.122-.512-.049-.585-.56.05-1.536.073-2.341.073a30.84 30.84 0 0 1-2.293-.073c-.17.073-.22.342-.049.586l.732.048c.78.05.903.318.025 2.39a48.726 48.726 0 0 1-1.44 3.196 257.233 257.233 0 0 1-1.878-4.244c-.463-1.098-.439-1.268.513-1.342l.634-.048c.146-.195.122-.513-.049-.586-.56.05-1.463.073-2.683.073-.976 0-1.902-.024-2.61-.073-.195.098-.22.39-.048.586l.585.048c.83.074 1.195.586 1.56 1.342.928 1.951 1.83 3.902 2.684 5.854.122.292.195.512.195.634s-.17.536-.39 1c-.634 1.366-1.293 2.731-1.878 3.95-1.415-3-2.854-6.048-4.22-9.097-.756-1.731-1.268-2.975-1.268-3.268 0-.22.293-.366.805-.415l.56-.048c.147-.171.171-.513-.048-.586-.854.05-2.098.073-2.78.073a40.78 40.78 0 0 1-2.513-.073c-.195.098-.22.44-.073.586l.585.048zm25.292 12.805c0 1.756-.024 2-.927 2.122l-.512.073c-.17.122-.122.537.049.61a31.784 31.784 0 0 1 2.293-.073c.853 0 1.56.024 2.292.073.171-.073.22-.488.049-.61l-.512-.073c-.878-.122-.927-.366-.927-2.122v-4.39c0-1 .049-2.17.098-3.024-.025-.098-.122-.147-.244-.147-.561.366-1.952 1-2.513 1.195-.121.074-.121.342-.024.44l.22.146c.658.439.658.56.658 1.512v4.268zm.805-12.487c-.732 0-1.317.512-1.317 1.317 0 .658.488 1.22 1.244 1.22.683 0 1.293-.391 1.293-1.27 0-.682-.488-1.267-1.22-1.267zm5.463 12.487c0 1.756-.024 2-.926 2.122l-.513.073c-.17.122-.122.537.05.61a31.784 31.784 0 0 1 2.292-.073c.854 0 1.56.024 2.22.073.17-.073.219-.488.048-.61l-.439-.073c-.878-.146-.927-.366-.927-2.122v-3.731c0-.708.05-1.05.366-1.464.342-.463 1.146-.853 2.073-.853 1.659 0 2.293 1.024 2.293 2.414v3.634c0 1.756-.024 1.976-.927 2.122l-.463.073c-.171.122-.122.537.049.61.658-.049 1.39-.073 2.268-.073.853 0 1.56.024 2.293.073.17-.073.219-.488.048-.61l-.536-.073c-.878-.122-.927-.366-.927-2.122v-4.195c0-1.634-.83-3.024-2.854-3.024-1.244 0-2.39.61-3.414 1.244-.171 0-.269-.122-.269-.269 0-.22 0-.585.05-1.146-.05-.122-.172-.17-.27-.17-.487.365-1.877 1-2.438 1.194-.122.074-.122.342-.025.44l.22.146c.658.439.658.56.658 1.512v4.268zm19.317-6.341c-.536 0-.707-.049-1.487-.39a6.087 6.087 0 0 0-2.342-.488c-2.17 0-3.975 1.585-3.975 3.683 0 1.56 1 2.512 1.829 2.951 0 .122-.122.317-.244.463-.415.44-.878.854-1.293 1.122-.268.195-.366.293-.366.415 0 .854.83 1.683 1.78 1.927.22.146.025.366-.194.585-.561.561-1.244 1.195-1.659 1.634-.17.195-.268.512-.268.903 0 1.22 1.049 2.829 4.049 2.829 3.17 0 6.073-1.951 6.073-4.61 0-2.439-2.049-2.683-3.415-2.683-1.073 0-2.073.073-2.902.073-1.146 0-1.707-.463-1.707-1.024 0-.707.78-1.17 1.073-1.341.292.024.634.073 1.073.073 3.097 0 4.097-2.195 4.097-3.878 0-.415 0-.83-.048-1.244h1.756c.366-.049.414-.878.146-1h-1.976zm-2.292 9.854c1.756 0 2.78.634 2.78 2.121 0 1.39-1.439 2.61-3.61 2.61-2.219 0-3.268-1.097-3.268-2.414 0-.927.586-1.683 1.171-2.05.341-.219 1.317-.267 2.098-.267h.829zm-1.317-4.44c-1.171 0-2.22-1.121-2.22-2.853 0-1.659.878-2.732 2.049-2.732 1.488 0 2.17 1.39 2.17 3.049 0 1.488-.682 2.536-2 2.536zm7.975.927c0 1.756-.024 2-.926 2.122l-.513.073c-.17.122-.122.537.05.61a31.784 31.784 0 0 1 2.292-.073c.853 0 1.56.024 2.292.073.171-.073.22-.488.05-.61l-.513-.073c-.878-.122-.927-.366-.927-2.122v-4.39c0-1 .049-2.17.098-3.024-.025-.098-.122-.147-.244-.147-.561.366-1.951 1-2.512 1.195-.122.074-.122.342-.025.44l.22.146c.658.439.658.56.658 1.512v4.268zm.805-12.487c-.731 0-1.317.512-1.317 1.317 0 .658.488 1.22 1.244 1.22.683 0 1.293-.391 1.293-1.27 0-.682-.488-1.267-1.22-1.267zm10.22 6.634c.268-.098.439-.78.17-1.025h-2.78c-.415 0-.415-.024-.415-.683V6.44c0-1.22.098-3 .537-4.122.366-.878.976-1.341 1.732-1.341.805 0 1.487.536 1.95 1.073.172.195.318.292.586.292.464 0 .927-.39.927-.878C69.655.585 68.557 0 67.265 0c-2.415 0-3.78 1.707-4.39 3.098-.586 1.365-.757 2.878-.757 4.292 0 .244-.17.39-.365.488l-1.05.512c-.097.147-.072.366.074.464h.854c.487 0 .487.048.487.707v5.146c0 1.756-.024 2-.926 2.122l-.561.073c-.171.122-.122.537.048.61a34.24 34.24 0 0 1 2.342-.073c.854 0 1.56.024 2.658.073.171-.073.22-.488.05-.61l-.879-.073c-.878-.073-.927-.366-.927-2.122V9.561c0-.659 0-.707.415-.707h2.61zm1.585 14.658c.561 0 1.146-.22 1.561-1.146a361.751 361.751 0 0 1 4-8.537l1.366-2.805c.83-1.731 1.268-2.439 2.073-2.585l.415-.073c.17-.146.146-.512-.049-.61-.683.049-1.244.073-1.854.073-.634 0-1.366-.024-2.146-.073-.195.073-.22.488-.049.61l.756.122c.44.073.586.244.586.414 0 .269-.317 1.171-.854 2.44l-.83 1.926c-.438 1-.829 1.756-.902 1.805-.097-.049-.56-1.341-.707-1.732l-.78-2.243c-.147-.415-.708-2-.708-2.293 0-.17.195-.244.537-.317l.61-.122c.17-.122.146-.537-.05-.61a33.676 33.676 0 0 1-4.438 0c-.195.073-.22.488-.073.61l.61.122c.853.17 1.024.756 1.438 1.902l1.903 5.22c.317.902.414 1.195.414 1.683 0 .341-.17.853-.244 1.048-.219.586-.707 1.61-1.414 2.708a.884.884 0 0 1-.805.439h-.463c-.537 0-.976.317-.976.975 0 .61.366 1.05 1.073 1.05z"/></svg>